<svg id="svg" fill="orange" stroke="orange" width="200" height="200" version="1.1" viewBox="144 144 512 512" xmlns="http://www.w3.org/2000/svg">
    <g id="IconSvg_bgCarrier" stroke-width="0"></g>
    <g id="IconSvg_tracerCarrier" stroke-linecap="round" stroke-linejoin="round" stroke="orange" stroke-width="0">
      <path xmlns="http://www.w3.org/2000/svg" d="m313.09 632.22h260.93c32.148 0 58.207-26.055 58.207-58.207v-30.559l-101.88-135.87c-5.7617-7.6836-14.816-12.203-24.418-12.203-9.6055 0-18.641 4.5195-24.402 12.203l-168.43 224.64zm-145.32-64.613v6.4062c0 32.148 26.055 58.207 58.207 58.207h57.59l62.219-82.988-59.828-79.773c-5.2578-7.0234-13.523-11.164-22.293-11.164s-17.035 4.1406-22.293 11.164zm0-39.375 54.695-72.941c9.7305-12.973 24.984-20.609 41.203-20.609 16.199 0 31.473 7.6367 41.188 20.609l55.703 74.266 102.07-136.14c10.219-13.633 26.262-21.648 43.297-21.648 17.051 0 33.094 8.0156 43.312 21.648l82.988 110.68v-278.12c0-32.148-26.055-58.207-58.207-58.207h-348.04c-32.148 0-58.207 26.055-58.207 58.207v302.25zm349-303.43c-27.27 0-49.422 22.152-49.422 49.422 0 27.285 22.152 49.422 49.422 49.422 27.27 0 49.422-22.137 49.422-49.422 0-27.27-22.152-49.422-49.422-49.422zm0 23.617c14.25 0 25.805 11.57 25.805 25.805 0 14.25-11.555 25.805-25.805 25.805-14.234 0-25.805-11.555-25.805-25.805 0-14.234 11.57-25.805 25.805-25.805z" fill-rule="evenodd"></path>

      </g>
     <g id="IconSvg_iconCarrier">
      <path xmlns="http://www.w3.org/2000/svg" d="m313.09 632.22h260.93c32.148 0 58.207-26.055 58.207-58.207v-30.559l-101.88-135.87c-5.7617-7.6836-14.816-12.203-24.418-12.203-9.6055 0-18.641 4.5195-24.402 12.203l-168.43 224.64zm-145.32-64.613v6.4062c0 32.148 26.055 58.207 58.207 58.207h57.59l62.219-82.988-59.828-79.773c-5.2578-7.0234-13.523-11.164-22.293-11.164s-17.035 4.1406-22.293 11.164zm0-39.375 54.695-72.941c9.7305-12.973 24.984-20.609 41.203-20.609 16.199 0 31.473 7.6367 41.188 20.609l55.703 74.266 102.07-136.14c10.219-13.633 26.262-21.648 43.297-21.648 17.051 0 33.094 8.0156 43.312 21.648l82.988 110.68v-278.12c0-32.148-26.055-58.207-58.207-58.207h-348.04c-32.148 0-58.207 26.055-58.207 58.207v302.25zm349-303.43c-27.27 0-49.422 22.152-49.422 49.422 0 27.285 22.152 49.422 49.422 49.422 27.27 0 49.422-22.137 49.422-49.422 0-27.27-22.152-49.422-49.422-49.422zm0 23.617c14.25 0 25.805 11.57 25.805 25.805 0 14.25-11.555 25.805-25.805 25.805-14.234 0-25.805-11.555-25.805-25.805 0-14.234 11.57-25.805 25.805-25.805z" fill-rule="evenodd"></path>

      </g>
      </svg>